<svg width="506" height="365" xmlns="http://www.w3.org/2000/svg"><defs><linearGradient x1="50%" y1="0%" x2="50%" y2="100%" id="a"><stop stop-color="#FA008E" offset="0%"/><stop stop-color="#F30055" offset="100%"/></linearGradient><linearGradient x1="50%" y1="100%" x2="50%" y2="0%" id="b"><stop stop-color="#F30055" offset="0%"/><stop stop-color="#FA008E" offset="100%"/></linearGradient><linearGradient x1="147.64%" y1="-89.816%" x2="50%" y2="100%" id="c"><stop stop-color="#FA008E" offset="0%"/><stop stop-color="#F30055" offset="100%"/></linearGradient><linearGradient x1="-24.228%" y1="-86.114%" x2="104.58%" y2="100%" id="d"><stop stop-color="#FA008E" offset="0%"/><stop stop-color="#F30055" offset="100%"/></linearGradient></defs><g fill-rule="nonzero" fill="none"><path fill="#3F3D56" d="M264 204h-35v1.143h5.458V216h1.13v-10.857h21.26V216h1.129v-10.857H264zM277 176h-9v9.154h4.172V216h1.125v-30.846H277zM229 201h35v1h-35zM229 198h35v1h-35zM229 195h35v1h-35z"/><path d="M353 219h-1.126c0-54.506-43.458-98.85-96.874-98.85s-96.874 44.344-96.874 98.85H157c0-55.14 43.963-100 98-100 54.038 0 98 44.86 98 100z" fill="#3F3D56"/><ellipse fill="url(#a)" cx="92" cy="94" rx="92" ry="94"/><path d="M160.767 31c17.663 42.485 2.782 91.871-35.148 116.644C87.69 172.416 37.89 165.274 8 130.775c14.275 34.342 46.919 56.781 83.237 57.219 36.317.437 69.463-21.211 84.516-55.2 15.053-33.988 9.176-73.91-14.986-101.794z" fill="#000" opacity=".2"/><path fill="#3F3D56" d="M92.5 95h.237L97 363h-9z"/><path fill="#3F3D56" d="M107.562 236.159l2.12 4.132-15.219 8.22-2.12-4.133z"/><ellipse fill="url(#b)" cx="431" cy="135" rx="75" ry="77"/><path d="M487.123 83c14.352 34.367 2.26 74.316-28.557 94.355-30.818 20.04-71.28 14.262-95.566-13.645 11.599 27.78 38.122 45.931 67.63 46.285 29.508.353 56.439-17.158 68.67-44.652 12.23-27.494 7.455-59.787-12.177-82.343z" fill="#000" opacity=".2"/><path fill="#3F3D56" d="M432 135h.21L436 351h-8z"/><path fill="#3F3D56" d="M443.626 249.212l1.717 3.345-12.319 6.652-1.716-3.345z"/><ellipse fill="url(#c)" cx="211.5" cy="188" rx="11.5" ry="12"/><path d="M220.096 180c2.208 5.412.348 11.703-4.394 14.86-4.74 3.155-10.966 2.245-14.702-2.15 1.784 4.375 5.865 7.233 10.405 7.29 4.54.055 8.682-2.703 10.564-7.033 1.882-4.33 1.147-9.415-1.873-12.967z" fill="#000" opacity=".2"/><path fill="#3F3D56" d="M211.5 188h.026l.474 34h-1z"/><path fill="#3F3D56" d="M213.569 206.357l.27.527-1.94 1.047-.27-.526z"/><ellipse fill="url(#d)" cx="319.5" cy="149.5" rx="29.5" ry="30.5"/><path d="M343.344 129c5.82 13.8.916 29.844-11.583 37.89-12.5 8.048-28.91 5.728-38.761-5.479 4.704 11.156 15.462 18.445 27.43 18.587 11.969.142 22.892-6.89 27.852-17.931 4.96-11.04 3.024-24.009-4.938-33.067z" fill="#000" opacity=".2"/><path fill="#3F3D56" d="M319.5 149h.079L321 236h-3z"/><path fill="#3F3D56" d="M324.93 195.743l.692 1.348-4.964 2.681-.692-1.348zM114 350s.372-8.957 8-7.916"/><ellipse fill="#F30055" cx="111" cy="336.5" rx="4" ry="4.5"/><path fill="#3F3D56" d="M111 344h1v8h-1zM142 331s.372-8.957 8-7.916"/><ellipse fill="#F30055" cx="139" cy="318.5" rx="4" ry="4.5"/><path fill="#3F3D56" d="M139 324h1v8h-1zM227 265s.326-6.718 7-5.937"/><circle fill="#F30055" cx="224.5" cy="255.5" r="3.5"/><path fill="#3F3D56" d="M225 261h1v7h-1zM351 244s.326-6.718 7-5.937"/><circle fill="#F30055" cx="348.5" cy="234.5" r="3.5"/><path fill="#3F3D56" d="M347 240h1v7h-1zM232 283s.326-6.718 7-5.937"/><circle fill="#F30055" cx="230.5" cy="273.5" r="3.5"/><path fill="#3F3D56" d="M230 278h1v7h-1zM219 295s.326-6.718 7-5.937"/><circle fill="#F30055" cx="216.5" cy="285.5" r="3.5"/><path fill="#3F3D56" d="M216 290h1v7h-1zM368 256s.326-6.718 7-5.937"/><circle fill="#F30055" cx="367.5" cy="245.5" r="3.5"/><path fill="#3F3D56" d="M367 250h1v7h-1zM187 270s.326-6.718 7-5.937"/><circle fill="#F30055" cx="184.5" cy="259.5" r="3.5"/><path fill="#3F3D56" d="M184 265h1v7h-1zM334 236s.326-6.718 7-5.937"/><circle fill="#F30055" cx="331.5" cy="227.5" r="3.5"/><path fill="#3F3D56" d="M331 232h1v7h-1zM65 351s.372-8.957 8-7.916"/><ellipse fill="#F30055" cx="62" cy="338.5" rx="4" ry="4.5"/><path fill="#3F3D56" d="M61 345h1v8h-1zM452 348s.372-8.957 8-7.916"/><ellipse fill="#F30055" cx="450" cy="336.5" rx="4" ry="4.5"/><path fill="#3F3D56" d="M449 344h1v8h-1zM420 328s.372-8.957 8-7.916"/><ellipse fill="#F30055" cx="417" cy="316.5" rx="4" ry="4.5"/><path fill="#3F3D56" d="M417 324h1v8h-1zM415 358s.372-8.957 8-7.916"/><ellipse fill="#F30055" cx="414" cy="346.5" rx="4" ry="4.5"/><path fill="#3F3D56" d="M412 353h1v8h-1z"/><path d="M71 365s176.82-47.975 175.135-97.105c-3.087-13.584-24.418-17.052-24.418-17.052s-50.52-6.936-23.014-23.698c27.505-16.762 102.723-12.716 102.723-12.716s-77.463 12.716-43.222 19.652c27.505 1.734 62.869 9.248 62.869 9.248s71.85 15.607 81.954 53.755c10.104 38.149 1.684 67.627 1.684 67.627L71 365z" fill="#E6E6E6"/><path d="M264.578 365l-.578-.95c.817-.688 1.622-1.37 2.415-2.05l.585.945a420.51 420.51 0 01-2.422 2.055zM271.382 358l-.692-.929a331.553 331.553 0 005.422-4.264l.71.914a330.832 330.832 0 01-5.44 4.279zm10.787-8.683l-.732-.897a252.051 252.051 0 005.21-4.523l.757.875a251.28 251.28 0 01-5.235 4.545zm10.334-9.249l-.785-.85c1.711-1.632 3.36-3.265 4.903-4.856l.816.819a179.74 179.74 0 01-4.934 4.887zm9.661-9.989l-.853-.779a118.348 118.348 0 004.418-5.299l.897.726a119.603 119.603 0 01-4.462 5.352zm8.57-10.996l-.947-.656a72.089 72.089 0 003.572-5.892l1.005.561a73.353 73.353 0 01-3.63 5.987zm6.59-12.363l-1.067-.426a40.943 40.943 0 001.946-6.58l1.123.235a42.033 42.033 0 01-2.002 6.771zm1.53-13.81a27.89 27.89 0 00-.922-6.706l1.107-.304c.602 2.281.925 4.63.961 6.99l-1.146.02zm-3.43-12.998a35.18 35.18 0 00-3.814-5.632l.879-.748a36.322 36.322 0 013.941 5.82l-1.005.56zm-8.55-10.55a62.268 62.268 0 00-5.344-4.283l.662-.951a63.255 63.255 0 015.443 4.361l-.76.872zm-11.088-8.034a107.31 107.31 0 00-6.01-3.324l.516-1.04a108.139 108.139 0 016.075 3.359l-.58 1.005zm-12.204-6.303a172.835 172.835 0 00-6.316-2.697l.424-1.082a174.55 174.55 0 016.357 2.714l-.465 1.065zm-12.743-5.174a279.709 279.709 0 00-6.488-2.297l.364-1.105a284.89 284.89 0 016.515 2.306l-.39 1.096zm-13.027-4.456a587.57 587.57 0 00-6.573-2.063l.332-1.116c2.43.749 4.585 1.425 6.586 2.066l-.345 1.113zm-13.168-4.076a848.41 848.41 0 01-6.599-2.027l.337-1.115c2.067.649 4.274 1.321 6.59 2.025l-.328 1.117zm-13.172-4.189a53.951 53.951 0 01-6.455-2.642l.515-1.042a52.65 52.65 0 006.315 2.582l-.375 1.102zm-8.655-7.64l-.817-.818c1.045-1.08 3.112-2.136 6.318-3.23l.365 1.106c-2.99 1.02-4.964 2.01-5.866 2.942zm12.422-4.84l-.277-1.132c1.983-.502 4.24-1.028 6.712-1.561l.238 1.14c-2.458.53-4.703 1.053-6.673 1.552zm13.393-2.926l-.215-1.145c2.112-.41 4.386-.835 6.76-1.263l.201 1.147c-2.37.428-4.639.852-6.746 1.261zm13.507-2.445l-.19-1.15c2.16-.368 4.42-.744 6.78-1.129l.182 1.15c-2.358.386-4.615.762-6.772 1.13zM277.148 217l-.148-1.369a905.74 905.74 0 012.855-.631l.145 1.369c-.968.212-1.919.423-2.852.631z" fill="#FFF"/><path d="M301.788 97.357L307 93.06c-4.049-.46-5.713 1.816-6.393 3.617-3.164-1.353-6.607.42-6.607.42L304.428 101a8.118 8.118 0 00-2.64-3.643zM205.788 130.357L211 126.06c-4.049-.46-5.713 1.816-6.393 3.617-3.164-1.353-6.607.42-6.607.42L208.428 134a8.118 8.118 0 00-2.64-3.643zM231.788 62.357L237 58.06c-4.049-.46-5.713 1.816-6.393 3.617-3.164-1.353-6.607.42-6.607.42L234.428 66a8.118 8.118 0 00-2.64-3.643z" fill="#3F3D56"/><path d="M287 252s-4.565 0-5.072 2.822c-.507 2.822-1.268 33.61-.76 37.458.506 3.848.506 3.078.506 3.078s-1.01 7.313 1.27 7.633c2.28.32 2.28-8.402 2.28-8.402l1.776-31.3V252zM306 252s4.565 0 5.072 2.822c.507 2.822 1.268 33.61.76 37.458-.506 3.848-.506 3.078-.506 3.078s1.01 7.313-1.27 7.633c-2.28.32-2.28-8.402-2.28-8.402l-1.776-31.3V252z" fill="#9E616A"/><path d="M286.367 359.304h-1.959c-1.169 0-2.29.495-3.117 1.376A4.855 4.855 0 00280 364h12v-6h-5.633v1.304zM305.633 359.304h1.959c2.434 0 4.408 2.103 4.408 4.696h-12v-6h5.633v1.304z" fill="#2F2E41"/><circle fill="#9E616A" cx="295.5" cy="239.5" r="6.5"/><path d="M293.715 243.552s-.71 8.436-1.657 9.203c-.946.767 9.942-.511 9.942-.511s-3.787-6.136-3.077-8.18c.71-2.046-5.208-.512-5.208-.512z" fill="#9E616A"/><path d="M309.047 252.602s-13.597-5.854-22.497 0c0 0-2.225 5.854-.495 9.163 1.73 3.31 4.45 11.2 1.73 16.546-2.719 5.345.248 3.054.248 3.054s-3.461 14.254-3.956 25.454c-.494 11.2 1.484 51.417 2.967 51.672 1.483.254 6.18.764 6.675 0 .495-.764 3.956-53.963 3.956-53.963S299.158 359 300.64 359c1.484 0 5.44 0 6.181-1.273.742-1.272 6.922-50.399 4.697-60.58-2.225-10.182-3.708-15.273-3.708-15.273s2.72-1.782 1.978-2.8c-.742-1.018-4.45-11.963-2.72-13.745s1.978-12.727 1.978-12.727z" fill="#2F2E41"/><ellipse fill="#2F2E41" cx="299" cy="235.5" rx="10" ry="10.5"/><path d="M305.599 230.067c-3.668-.958-6.012-4.949-5.326-9.067-.03.12-.06.24-.085.362-.89 4.217 1.464 8.437 5.258 9.428 3.793.991 7.592-1.623 8.485-5.839.026-.122.049-.244.069-.366-1.035 4.027-4.733 6.44-8.401 5.482z" fill="#2F2E41"/><circle fill="#2F2E41" cx="306" cy="226" r="5"/></g></svg>
